<?xml version="1.0" encoding="UTF-8"?>
<svg version="1.1" xmlns="http://www.w3.org/2000/svg" width="240" height="240">
<path d="M0 0 C2.5625 1.125 2.5625 1.125 4.07861328 4.49145508 C5.8813309 9.68091972 6.86757227 14.99547852 7.8671875 20.38671875 C8.29010586 22.58012803 8.71329143 24.77348579 9.13671875 26.96679688 C9.78805056 30.3842091 10.43557872 33.80226854 11.07763672 37.22143555 C16.17905965 65.7316882 16.17905965 65.7316882 33.5625 88.125 C41.80314733 92.95696855 50.5434039 95.98478721 59.625 98.8125 C62.01436361 99.55798144 64.40123182 100.31152266 66.78515625 101.07421875 C68.34375366 101.55894653 68.34375366 101.55894653 69.93383789 102.0534668 C72.52766203 103.11079884 73.89889269 103.89294895 75.5625 106.125 C75.5625 108.625 75.5625 108.625 74.5625 111.125 C71.01421709 113.5999802 67.38376389 115.01855547 63.30078125 116.39453125 C62.09873047 116.80896484 60.89667969 117.22339844 59.65820312 117.65039062 C57.15714197 118.50129372 54.65455554 119.34772806 52.15039062 120.18945312 C38.16993353 125.02855534 27.98652043 131.01794916 20.4375 144.0625 C14.35973743 157.11904114 12.57271731 172.16972521 9.69921875 186.19921875 C9.54191788 186.96641235 9.384617 187.73360596 9.22254944 188.52404785 C8.44572557 192.31895715 7.67638602 196.11509045 6.92211914 199.91455078 C6.77978348 200.62263382 6.63744781 201.33071686 6.49079895 202.06025696 C6.10307103 203.9891765 5.71983758 205.91899791 5.33691406 207.84887695 C4.6454084 210.77425982 3.76849838 213.37832892 2.5625 216.125 C0.25 216.4375 0.25 216.4375 -2.4375 216.125 C-4.9240204 212.71866013 -5.99472265 209.58692591 -6.81616211 205.48364258 C-7.04327377 204.37511429 -7.27038544 203.266586 -7.50437927 202.12446594 C-7.85605919 200.34002327 -7.85605919 200.34002327 -8.21484375 198.51953125 C-8.46746475 197.28514816 -8.72008575 196.05076508 -8.98036194 194.77897644 C-9.78755152 190.83357599 -10.58311305 186.88599144 -11.375 182.9375 C-12.41455432 177.75416446 -13.46748756 172.57376575 -14.52734375 167.39453125 C-14.7597728 166.21502396 -14.99220184 165.03551666 -15.23167419 163.82026672 C-18.24420538 149.11124345 -23.79997323 136.03768377 -36.4375 127.125 C-45.32973922 122.41707185 -54.940424 119.46364435 -64.46875 116.34375 C-66.139375 115.78300781 -66.139375 115.78300781 -67.84375 115.2109375 C-69.34905273 114.7166626 -69.34905273 114.7166626 -70.88476562 114.21240234 C-73.42288461 113.1312258 -74.82944103 112.35586938 -76.4375 110.125 C-76.125 106.9375 -76.125 106.9375 -75.4375 104.125 C-69.89207073 102.0725149 -64.33868227 100.07051209 -58.71875 98.23046875 C-37.04910205 91.10226058 -37.04910205 91.10226058 -22.4375 74.125 C-17.94910625 65.15187649 -15.84865247 55.99313323 -13.92633057 46.23132324 C-13.42950319 43.70940787 -12.91783787 41.19091327 -12.40185547 38.67285156 C-11.72072243 35.34745375 -11.04365024 32.02128101 -10.37011719 28.69433594 C-9.16021998 22.74132011 -7.88656166 16.80364955 -6.5625 10.875 C-6.27632812 9.54782959 -6.27632812 9.54782959 -5.984375 8.19384766 C-4.18995827 0.21486966 -4.18995827 0.21486966 0 0 Z " fill="#FCD734" transform="translate(156.4375,9.875)"/>
<path d="M0 0 C2.3125 -0.3125 2.3125 -0.3125 5 0 C7.52390593 3.4670684 8.6666845 6.83058278 9.68359375 10.96484375 C9.97169922 12.09470703 10.25980469 13.22457031 10.55664062 14.38867188 C11.14274061 16.74996605 11.72608552 19.11194581 12.30664062 21.47460938 C14.47423212 29.94704386 16.39132585 36.00152379 24 41 C26.94555337 42.34430347 29.95586457 43.46295433 33 44.5625 C37.93831802 46.37027713 42.58736936 48.07307363 47 51 C46.875 53.3125 46.875 53.3125 46 56 C42.3564757 58.46184074 38.27463279 59.58401674 34.125 60.9375 C23.63441231 64.37268204 23.63441231 64.37268204 16 72 C14.81008714 75.09528552 14.81008714 75.09528552 14 78.47265625 C13.505 80.31633789 13.505 80.31633789 13 82.19726562 C12.49879616 84.13453595 11.99760901 86.07181295 11.5 88.01000977 C11.01117666 89.89632366 10.50577523 91.77831678 10 93.66015625 C9.71125 94.78043213 9.4225 95.90070801 9.125 97.05493164 C7.89941577 100.26331328 6.6852488 101.88426073 4 104 C1.75 103.75 1.75 103.75 0 103 C-0.42314361 101.40837862 -0.84626515 99.81675137 -1.26928711 98.22509766 C-1.63432447 96.85583843 -2.00105037 95.48702834 -2.36938477 94.11865234 C-3.19674636 91.04209293 -4.00782392 87.96769607 -4.7578125 84.87109375 C-6.86691049 76.34985301 -9.39508083 69.31147745 -16.88671875 64.19140625 C-21.63093207 61.51675734 -26.95879511 60.1719036 -32.14453125 58.59570312 C-33.01207031 58.31533203 -33.87960938 58.03496094 -34.7734375 57.74609375 C-35.56153809 57.50560303 -36.34963867 57.2651123 -37.16162109 57.01733398 C-39 56 -39 56 -39.95166016 54.07836914 C-40 52 -40 52 -38.8684082 50.38964844 C-36.69930815 48.77635724 -34.60485282 47.79870065 -32.10546875 46.765625 C-31.14962891 46.35570312 -30.19378906 45.94578125 -29.20898438 45.5234375 C-27.21018402 44.68102132 -25.20759707 43.84752842 -23.20117188 43.0234375 C-15.93115776 39.87911978 -11.48722763 36.56237021 -7.6796875 29.578125 C-4.77306204 21.16866493 -3.08626053 12.52094161 -1.41723633 3.79663086 C-1 2 -1 2 0 0 Z " fill="#FCD734" transform="translate(47,117)"/>
<path d="M0 0 C1.32 0.33 2.64 0.66 4 1 C4.24234375 1.93199219 4.4846875 2.86398438 4.734375 3.82421875 C5.253176 5.79765794 5.77362975 7.77090556 6.32983398 9.73413086 C7.27282664 13.07903423 8.02940685 16.22161004 8.48828125 19.6796875 C9.14174325 23.5293344 9.68399176 25.82787976 12 29 C17.32724058 31.83226904 23.32147913 33.06593023 29.20581055 34.20141602 C29.79789307 34.46494873 30.38997559 34.72848145 31 35 C31.75708008 37.07788086 31.75708008 37.07788086 32 39 C27.04340366 42.26042269 21.80839472 43.77413526 16.1796875 45.5234375 C12.44249849 47.25888891 11.83992568 48.40443718 10 52 C9.07237003 54.58826884 9.07237003 54.58826884 8.39453125 57.30078125 C8.13349609 58.27724609 7.87246094 59.25371094 7.60351562 60.25976562 C7.34248047 61.26716797 7.08144531 62.27457031 6.8125 63.3125 C6.53986328 64.33923828 6.26722656 65.36597656 5.98632812 66.42382812 C5.31726852 68.94747401 4.65541641 71.47278302 4 74 C2.35 74 0.7 74 -1 74 C-1.32613281 72.7934375 -1.65226562 71.586875 -1.98828125 70.34375 C-2.42949026 68.72911276 -2.87090766 67.11453245 -3.3125 65.5 C-3.52583984 64.70851563 -3.73917969 63.91703125 -3.95898438 63.1015625 C-5.93548754 53.89173038 -5.93548754 53.89173038 -10.91015625 46.484375 C-11.62042969 46.24203125 -12.33070312 45.9996875 -13.0625 45.75 C-13.84625 45.46125 -14.63 45.1725 -15.4375 44.875 C-16.7059375 44.441875 -16.7059375 44.441875 -18 44 C-19.85705413 43.25717835 -21.71130566 42.50730677 -23.5625 41.75 C-25.04097333 41.16491162 -26.51988469 40.58092208 -28 40 C-28 38.35 -28 36.7 -28 35 C-27.16021606 34.7980603 -27.16021606 34.7980603 -26.3034668 34.59204102 C-23.75307516 33.95490595 -21.22208816 33.2597405 -18.6875 32.5625 C-17.36588867 32.24635742 -17.36588867 32.24635742 -16.01757812 31.92382812 C-11.1543675 30.59738351 -11.1543675 30.59738351 -7.79760742 27.08105469 C-6.98784071 24.72861984 -6.45831535 22.44443017 -6 20 C-5.63610274 18.50211976 -5.27026565 17.00470926 -4.90234375 15.5078125 C-4.40850338 13.29635204 -3.92830437 11.08230863 -3.45117188 8.8671875 C-2.67580669 5.40451247 -1.99054289 2.98581433 0 0 Z " fill="#F4B400" transform="translate(83,14)"/>
<path d="M0 0 C-2.54489256 3.81733884 -4.31215397 4.05511116 -8.625 5.48828125 C-9.61729614 5.82680367 -9.61729614 5.82680367 -10.62963867 6.17216492 C-13.4514599 7.13481833 -16.28087898 8.0740406 -19.11083984 9.01245117 C-34.19677928 14.044037 -45.88518475 19.69927001 -54.125 33.9375 C-60.20276257 46.99404114 -61.98978269 62.04472521 -64.86328125 76.07421875 C-65.09923256 77.22500916 -65.09923256 77.22500916 -65.33995056 78.39904785 C-66.11677443 82.19395715 -66.88611398 85.99009045 -67.64038086 89.78955078 C-67.78271652 90.49763382 -67.92505219 91.20571686 -68.07170105 91.93525696 C-68.45942897 93.8641765 -68.84266242 95.79399791 -69.22558594 97.72387695 C-69.9170916 100.64925982 -70.79400162 103.25332892 -72 106 C-72.99 106 -73.98 106 -75 106 C-75.10735698 98.17559593 -74.79599966 90.44347084 -74.23046875 82.640625 C-74.14879959 81.4931781 -74.06713043 80.3457312 -73.98298645 79.16351318 C-73.80942325 76.74980287 -73.63366537 74.33624945 -73.45581055 71.92285156 C-73.18930518 68.27471081 -72.93717296 64.62575571 -72.68554688 60.9765625 C-70.19241408 26.09177017 -70.19241408 26.09177017 -62 18 C-61.0925 17.0925 -60.185 16.185 -59.25 15.25 C-50.16029155 8.95712492 -39.10219773 7.1887335 -28.48535156 4.85302734 C-25.74020662 4.24784098 -22.99898507 3.62681105 -20.2578125 3.00390625 C-18.50021012 2.61103796 -16.74240425 2.21907866 -14.984375 1.828125 C-14.17176208 1.6438092 -13.35914917 1.45949341 -12.52191162 1.26959229 C-8.26506052 0.34253975 -4.38764136 -0.20558832 0 0 Z " fill="#F4B501" transform="translate(231,120)"/>
<path d="M0 0 C0.99 0.495 0.99 0.495 2 1 C2.83865082 3.95883547 3.5414974 6.87199701 4.1875 9.875 C4.39890625 10.8230249 4.6103125 11.7710498 4.828125 12.74780273 C6.21715047 19.07828632 7.48232464 25.42919645 8.70703125 31.79296875 C9.00689835 33.33805707 9.30678453 34.88314168 9.60668945 36.42822266 C10.19406348 39.4579113 10.7643078 42.49016727 11.32495117 45.52490234 C14.28489109 61.1439462 19.07230894 76.72731024 32 87 C40.25848395 91.83219435 49.04277896 94.9258641 58.125 97.8125 C60.52377593 98.58879878 62.92223115 99.36608948 65.3203125 100.14453125 C66.36461426 100.47815674 67.40891602 100.81178223 68.48486328 101.15551758 C71 102 71 102 73 103 C73 103.66 73 104.32 73 105 C63.17868791 104.51186322 53.64125732 103.33669914 43.96679688 101.63574219 C41.74074594 101.24838971 39.51150274 100.8857071 37.28125 100.5234375 C27.890418 98.93011613 19.27216424 96.99354483 12.125 90.3125 C2.86862617 75.88344667 2.53156812 57.43873415 1.49194336 40.79760742 C1.31243617 37.93648267 1.11726902 35.07674095 0.91992188 32.21679688 C0.20117225 21.45919782 -0.18232498 10.78225553 0 0 Z " fill="#FEED56" transform="translate(158,11)"/>
<path d="M0 0 C1.60488281 0.00483398 1.60488281 0.00483398 3.2421875 0.00976562 C4.35335937 0.01814453 5.46453125 0.02652344 6.609375 0.03515625 C8.29933594 0.04192383 8.29933594 0.04192383 10.0234375 0.04882812 C12.80213717 0.06060228 15.58072909 0.07704785 18.359375 0.09765625 C15.41333262 3.33491278 12.27357737 4.30258791 8.171875 5.53515625 C-3.24068316 9.01406856 -3.24068316 9.01406856 -11.640625 17.09765625 C-12.84640608 20.20916259 -12.84640608 20.20916259 -13.67578125 23.60546875 C-14.17754883 25.45591797 -14.17754883 25.45591797 -14.68945312 27.34375 C-15.02856492 28.63639901 -15.36644359 29.9293721 -15.703125 31.22265625 C-16.36974261 33.77046178 -17.05015061 36.31324529 -17.73828125 38.85546875 C-18.03226807 39.98098145 -18.32625488 41.10649414 -18.62915039 42.26611328 C-19.61404422 45.02324546 -20.3909903 46.28983597 -22.640625 48.09765625 C-22.49992743 44.13912324 -22.35211452 40.18088516 -22.203125 36.22265625 C-22.14415039 34.55976563 -22.14415039 34.55976563 -22.08398438 32.86328125 C-21.2716254 11.61696955 -21.2716254 11.61696955 -15.640625 5.09765625 C-10.39403001 0.92179493 -6.57074897 -0.03495079 0 0 Z " fill="#F4B401" transform="translate(74.640625,171.90234375)"/>
<path d="M0 0 C3.80956166 2.53970778 3.80139343 3.96052928 4.90234375 8.328125 C5.23556641 9.60300781 5.56878906 10.87789062 5.91210938 12.19140625 C6.25522765 13.5439363 6.59701346 14.89680504 6.9375 16.25 C7.60024918 18.88378246 8.27801845 21.51303083 8.96484375 24.140625 C9.2599585 25.31141602 9.55507324 26.48220703 9.85913086 27.68847656 C11.84710085 33.45882215 14.90785303 37.65231946 20 41 C22.96574287 42.36637803 25.99602107 43.50631681 29.0625 44.625 C30.65817241 45.21969237 32.25324639 45.81599341 33.84765625 46.4140625 C34.54898682 46.6713916 35.25031738 46.9287207 35.97290039 47.19384766 C38.04900162 48.01948734 40.01660824 48.97338819 42 50 C42 50.33 42 50.66 42 51 C35.61392643 51.30495295 29.73698556 50.18468711 23.5 48.875 C22.49324219 48.68679687 21.48648438 48.49859375 20.44921875 48.3046875 C14.00948487 46.95428459 9.23807219 45.21082463 5 40 C3.73046875 37.38671875 3.73046875 37.38671875 3.1875 34.6875 C2.97867188 33.65109375 2.76984375 32.6146875 2.5546875 31.546875 C0.91063085 21.03417474 -0.41474906 10.66826754 0 0 Z " fill="#FEEC56" transform="translate(51,117)"/>
</svg>
